<svg xmlns="http://www.w3.org/2000/svg" version="1.1" xmlns:xlink="http://www.w3.org/1999/xlink" xmlns:svgjs="http://svgjs.dev/svgjs" width="1440" height="1200" preserveAspectRatio="none" viewBox="0 0 1440 1200">
    <g mask="url(&quot;#SvgjsMask1067&quot;)" fill="none">
        <g mask="url(&quot;#SvgjsMask1068&quot;)">
            <path d="M1445 561L1445 153L1309 17L1275 17L1207 85" stroke-width="5.67" stroke="#3a7cc3"></path>
            <path d="M1436.5 561 a8.5 8.5 0 1 0 17 0 a8.5 8.5 0 1 0 -17 0zM1198.5 85 a8.5 8.5 0 1 0 17 0 a8.5 8.5 0 1 0 -17 0z" fill="#3a7cc3"></path>
            <path d="M765 561L663 459L663 187L833 17L935 17" stroke-width="5.67" stroke="#3a7cc3"></path>
            <path d="M756.5 561 a8.5 8.5 0 1 0 17 0 a8.5 8.5 0 1 0 -17 0zM926.5 17 a8.5 8.5 0 1 0 17 0 a8.5 8.5 0 1 0 -17 0z" fill="#3a7cc3"></path>
            <path d="M323 17L799 17" stroke-width="5.67" stroke="#3a7cc3"></path>
            <path d="M314.5 17 a8.5 8.5 0 1 0 17 0 a8.5 8.5 0 1 0 -17 0zM790.5 17 a8.5 8.5 0 1 0 17 0 a8.5 8.5 0 1 0 -17 0z" fill="#3a7cc3"></path>
            <path d="M425 425L425 663L289 799L255 799L153 697L17 697" stroke-width="5.67" stroke="#3a7cc3"></path>
            <path d="M416.5 425 a8.5 8.5 0 1 0 17 0 a8.5 8.5 0 1 0 -17 0zM8.5 697 a8.5 8.5 0 1 0 17 0 a8.5 8.5 0 1 0 -17 0z" fill="#3a7cc3"></path>
            <path d="M1071 1207L1207 1207L1411 1003L1445 1003" stroke-width="5.67" stroke="#3a7cc3"></path>
            <path d="M1062.5 1207 a8.5 8.5 0 1 0 17 0 a8.5 8.5 0 1 0 -17 0zM1436.5 1003 a8.5 8.5 0 1 0 17 0 a8.5 8.5 0 1 0 -17 0z" fill="#3a7cc3"></path>
            <path d="M765 1207L765 1105L629 969L629 561" stroke-width="5.67" stroke="#3a7cc3"></path>
            <path d="M756.5 1207 a8.5 8.5 0 1 0 17 0 a8.5 8.5 0 1 0 -17 0zM620.5 561 a8.5 8.5 0 1 0 17 0 a8.5 8.5 0 1 0 -17 0z" fill="#3a7cc3"></path>
            <path d="M1003 17L1241 17" stroke-width="5.67" stroke="#3a7cc3"></path>
            <path d="M994.5 17 a8.5 8.5 0 1 0 17 0 a8.5 8.5 0 1 0 -17 0zM1232.5 17 a8.5 8.5 0 1 0 17 0 a8.5 8.5 0 1 0 -17 0z" fill="#3a7cc3"></path>
            <path d="M1241 935L1241 1139L1207 1173L799 1173" stroke-width="5.67" stroke="#3a7cc3"></path>
            <path d="M1232.5 935 a8.5 8.5 0 1 0 17 0 a8.5 8.5 0 1 0 -17 0zM790.5 1173 a8.5 8.5 0 1 0 17 0 a8.5 8.5 0 1 0 -17 0z" fill="#3a7cc3"></path>
            <path d="M1003 731L697 425L697 187L799 85" stroke-width="5.67" stroke="#3a7cc3"></path>
            <path d="M994.5 731 a8.5 8.5 0 1 0 17 0 a8.5 8.5 0 1 0 -17 0zM790.5 85 a8.5 8.5 0 1 0 17 0 a8.5 8.5 0 1 0 -17 0z" fill="#3a7cc3"></path>
            <path d="M85 1071L493 1071L629 1207L731 1207" stroke-width="5.67" stroke="#3a7cc3"></path>
            <path d="M76.5 1071 a8.5 8.5 0 1 0 17 0 a8.5 8.5 0 1 0 -17 0zM722.5 1207 a8.5 8.5 0 1 0 17 0 a8.5 8.5 0 1 0 -17 0z" fill="#3a7cc3"></path>
            <path d="M1207 357L1173 391L1173 629L1445 901L1445 969" stroke-width="5.67" stroke="#3a7cc3"></path>
            <path d="M1198.5 357 a8.5 8.5 0 1 0 17 0 a8.5 8.5 0 1 0 -17 0zM1436.5 969 a8.5 8.5 0 1 0 17 0 a8.5 8.5 0 1 0 -17 0z" fill="#3a7cc3"></path>
            <path d="M867 969L935 1037L1207 1037" stroke-width="5.67" stroke="#3a7cc3"></path>
            <path d="M858.5 969 a8.5 8.5 0 1 0 17 0 a8.5 8.5 0 1 0 -17 0zM1198.5 1037 a8.5 8.5 0 1 0 17 0 a8.5 8.5 0 1 0 -17 0z" fill="#3a7cc3"></path>
            <path d="M561 1003L629 1003L731 1105L731 1173" stroke-width="5.67" stroke="#3a7cc3"></path>
            <path d="M552.5 1003 a8.5 8.5 0 1 0 17 0 a8.5 8.5 0 1 0 -17 0zM722.5 1173 a8.5 8.5 0 1 0 17 0 a8.5 8.5 0 1 0 -17 0z" fill="#3a7cc3"></path>
            <path d="M1275 1003L1377 1003L1411 969L1411 901L969 459" stroke-width="5.67" stroke="#3a7cc3"></path>
            <path d="M1266.5 1003 a8.5 8.5 0 1 0 17 0 a8.5 8.5 0 1 0 -17 0zM960.5 459 a8.5 8.5 0 1 0 17 0 a8.5 8.5 0 1 0 -17 0z" fill="#3a7cc3"></path>
            <path d="M1003 255L833 85L833 51" stroke-width="5.67" stroke="#3a7cc3"></path>
            <path d="M994.5 255 a8.5 8.5 0 1 0 17 0 a8.5 8.5 0 1 0 -17 0zM824.5 51 a8.5 8.5 0 1 0 17 0 a8.5 8.5 0 1 0 -17 0z" fill="#3a7cc3"></path>
            <path d="M1173 867L1173 1003" stroke-width="5.67" stroke="#3a7cc3"></path>
            <path d="M1164.5 867 a8.5 8.5 0 1 0 17 0 a8.5 8.5 0 1 0 -17 0zM1164.5 1003 a8.5 8.5 0 1 0 17 0 a8.5 8.5 0 1 0 -17 0z" fill="#3a7cc3"></path>
            <path d="M323 153L323 51L289 17L17 17" stroke-width="5.67" stroke="#3a7cc3"></path>
            <path d="M314.5 153 a8.5 8.5 0 1 0 17 0 a8.5 8.5 0 1 0 -17 0zM8.5 17 a8.5 8.5 0 1 0 17 0 a8.5 8.5 0 1 0 -17 0z" fill="#3a7cc3"></path>
            <path d="M1207 867L1241 867L1343 969L1377 969" stroke-width="5.67" stroke="#3a7cc3"></path>
            <path d="M1198.5 867 a8.5 8.5 0 1 0 17 0 a8.5 8.5 0 1 0 -17 0zM1368.5 969 a8.5 8.5 0 1 0 17 0 a8.5 8.5 0 1 0 -17 0z" fill="#3a7cc3"></path>
            <path d="M493 85L527 51L765 51" stroke-width="5.67" stroke="#3a7cc3"></path>
            <path d="M484.5 85 a8.5 8.5 0 1 0 17 0 a8.5 8.5 0 1 0 -17 0zM756.5 51 a8.5 8.5 0 1 0 17 0 a8.5 8.5 0 1 0 -17 0z" fill="#3a7cc3"></path>
            <path d="M969 527L969 493L731 255L731 187L799 119L833 119L1037 323" stroke-width="5.67" stroke="#3a7cc3"></path>
            <path d="M960.5 527 a8.5 8.5 0 1 0 17 0 a8.5 8.5 0 1 0 -17 0zM1028.5 323 a8.5 8.5 0 1 0 17 0 a8.5 8.5 0 1 0 -17 0z" fill="#3a7cc3"></path>
            <path d="M799 391L833 391L935 493L935 629L1105 799L1275 799L1309 833" stroke-width="5.67" stroke="#3a7cc3"></path>
            <path d="M790.5 391 a8.5 8.5 0 1 0 17 0 a8.5 8.5 0 1 0 -17 0zM1300.5 833 a8.5 8.5 0 1 0 17 0 a8.5 8.5 0 1 0 -17 0z" fill="#3a7cc3"></path>
            <path d="M391 1173L561 1173L595 1207" stroke-width="5.67" stroke="#3a7cc3"></path>
            <path d="M382.5 1173 a8.5 8.5 0 1 0 17 0 a8.5 8.5 0 1 0 -17 0zM586.5 1207 a8.5 8.5 0 1 0 17 0 a8.5 8.5 0 1 0 -17 0z" fill="#3a7cc3"></path>
            <path d="M459 255L357 255L221 391L51 391L17 357L17 153" stroke-width="5.67" stroke="#3a7cc3"></path>
            <path d="M450.5 255 a8.5 8.5 0 1 0 17 0 a8.5 8.5 0 1 0 -17 0zM8.5 153 a8.5 8.5 0 1 0 17 0 a8.5 8.5 0 1 0 -17 0z" fill="#3a7cc3"></path>
            <path d="M1139 765L969 595L969 561L1003 527" stroke-width="5.67" stroke="#3a7cc3"></path>
            <path d="M1130.5 765 a8.5 8.5 0 1 0 17 0 a8.5 8.5 0 1 0 -17 0zM994.5 527 a8.5 8.5 0 1 0 17 0 a8.5 8.5 0 1 0 -17 0z" fill="#3a7cc3"></path>
            <path d="M153 1105L493 1105L527 1139" stroke-width="5.67" stroke="#3a7cc3"></path>
            <path d="M144.5 1105 a8.5 8.5 0 1 0 17 0 a8.5 8.5 0 1 0 -17 0zM518.5 1139 a8.5 8.5 0 1 0 17 0 a8.5 8.5 0 1 0 -17 0z" fill="#3a7cc3"></path>
            <path d="M663 663L663 969L697 1003L799 1003L935 1139L969 1139L1003 1105" stroke-width="5.67" stroke="#3a7cc3"></path>
            <path d="M654.5 663 a8.5 8.5 0 1 0 17 0 a8.5 8.5 0 1 0 -17 0zM994.5 1105 a8.5 8.5 0 1 0 17 0 a8.5 8.5 0 1 0 -17 0z" fill="#3a7cc3"></path>
            <path d="M731 561L731 969" stroke-width="5.67" stroke="#3a7cc3"></path>
            <path d="M722.5 561 a8.5 8.5 0 1 0 17 0 a8.5 8.5 0 1 0 -17 0zM722.5 969 a8.5 8.5 0 1 0 17 0 a8.5 8.5 0 1 0 -17 0z" fill="#3a7cc3"></path>
            <path d="M629 85L527 85L391 221L357 221L255 119L17 119" stroke-width="5.67" stroke="#3a7cc3"></path>
            <path d="M620.5 85 a8.5 8.5 0 1 0 17 0 a8.5 8.5 0 1 0 -17 0zM8.5 119 a8.5 8.5 0 1 0 17 0 a8.5 8.5 0 1 0 -17 0z" fill="#3a7cc3"></path>
            <path d="M731 1037L799 1037L901 1139" stroke-width="5.67" stroke="#3a7cc3"></path>
            <path d="M722.5 1037 a8.5 8.5 0 1 0 17 0 a8.5 8.5 0 1 0 -17 0zM892.5 1139 a8.5 8.5 0 1 0 17 0 a8.5 8.5 0 1 0 -17 0z" fill="#3a7cc3"></path>
            <path d="M1071 323L1071 357L1003 425L935 425L765 255L765 187L799 153L833 153L1003 323" stroke-width="5.67" stroke="#3a7cc3"></path>
            <path d="M1062.5 323 a8.5 8.5 0 1 0 17 0 a8.5 8.5 0 1 0 -17 0zM994.5 323 a8.5 8.5 0 1 0 17 0 a8.5 8.5 0 1 0 -17 0z" fill="#3a7cc3"></path>
            <path d="M221 85L255 85L289 119" stroke-width="5.67" stroke="#3a7cc3"></path>
            <path d="M212.5 85 a8.5 8.5 0 1 0 17 0 a8.5 8.5 0 1 0 -17 0zM280.5 119 a8.5 8.5 0 1 0 17 0 a8.5 8.5 0 1 0 -17 0z" fill="#3a7cc3"></path>
            <path d="M1003 1071L969 1105L935 1105L765 935L765 595L799 561" stroke-width="5.67" stroke="#3a7cc3"></path>
            <path d="M994.5 1071 a8.5 8.5 0 1 0 17 0 a8.5 8.5 0 1 0 -17 0zM790.5 561 a8.5 8.5 0 1 0 17 0 a8.5 8.5 0 1 0 -17 0z" fill="#3a7cc3"></path>
            <path d="M1139 391L1105 391L1037 459L1037 493L1139 595" stroke-width="5.67" stroke="#3a7cc3"></path>
            <path d="M1130.5 391 a8.5 8.5 0 1 0 17 0 a8.5 8.5 0 1 0 -17 0zM1130.5 595 a8.5 8.5 0 1 0 17 0 a8.5 8.5 0 1 0 -17 0z" fill="#3a7cc3"></path>
            <path d="M153 187L153 357" stroke-width="5.67" stroke="#3a7cc3"></path>
            <path d="M144.5 187 a8.5 8.5 0 1 0 17 0 a8.5 8.5 0 1 0 -17 0zM144.5 357 a8.5 8.5 0 1 0 17 0 a8.5 8.5 0 1 0 -17 0z" fill="#3a7cc3"></path>
            <path d="M1207 119L1275 51L1309 51L1411 153L1411 595" stroke-width="5.67" stroke="#3a7cc3"></path>
            <path d="M1198.5 119 a8.5 8.5 0 1 0 17 0 a8.5 8.5 0 1 0 -17 0zM1402.5 595 a8.5 8.5 0 1 0 17 0 a8.5 8.5 0 1 0 -17 0z" fill="#3a7cc3"></path>
            <path d="M493 459L595 561L595 629L357 867L357 1037" stroke-width="5.67" stroke="#3a7cc3"></path>
            <path d="M484.5 459 a8.5 8.5 0 1 0 17 0 a8.5 8.5 0 1 0 -17 0zM348.5 1037 a8.5 8.5 0 1 0 17 0 a8.5 8.5 0 1 0 -17 0z" fill="#3a7cc3"></path>
            <path d="M493 153L527 119L697 119L731 85" stroke-width="5.67" stroke="#3a7cc3"></path>
            <path d="M484.5 153 a8.5 8.5 0 1 0 17 0 a8.5 8.5 0 1 0 -17 0zM722.5 85 a8.5 8.5 0 1 0 17 0 a8.5 8.5 0 1 0 -17 0z" fill="#3a7cc3"></path>
            <path d="M527 595L527 663L153 1037L17 1037" stroke-width="5.67" stroke="#3a7cc3"></path>
            <path d="M518.5 595 a8.5 8.5 0 1 0 17 0 a8.5 8.5 0 1 0 -17 0zM8.5 1037 a8.5 8.5 0 1 0 17 0 a8.5 8.5 0 1 0 -17 0z" fill="#3a7cc3"></path>
            <path d="M765 459L901 595" stroke-width="5.67" stroke="#3a7cc3"></path>
            <path d="M756.5 459 a8.5 8.5 0 1 0 17 0 a8.5 8.5 0 1 0 -17 0zM892.5 595 a8.5 8.5 0 1 0 17 0 a8.5 8.5 0 1 0 -17 0z" fill="#3a7cc3"></path>
            <path d="M459 323L595 459L629 459L697 527L697 561L663 595L663 629L697 663L697 935" stroke-width="5.67" stroke="#3a7cc3"></path>
            <path d="M450.5 323 a8.5 8.5 0 1 0 17 0 a8.5 8.5 0 1 0 -17 0zM688.5 935 a8.5 8.5 0 1 0 17 0 a8.5 8.5 0 1 0 -17 0z" fill="#3a7cc3"></path>
            <path d="M833 799L1003 799L1139 935L1139 1003" stroke-width="5.67" stroke="#3a7cc3"></path>
            <path d="M824.5 799 a8.5 8.5 0 1 0 17 0 a8.5 8.5 0 1 0 -17 0zM1130.5 1003 a8.5 8.5 0 1 0 17 0 a8.5 8.5 0 1 0 -17 0z" fill="#3a7cc3"></path>
            <path d="M323 221L255 153L85 153L51 187L51 357" stroke-width="5.67" stroke="#3a7cc3"></path>
            <path d="M314.5 221 a8.5 8.5 0 1 0 17 0 a8.5 8.5 0 1 0 -17 0zM42.5 357 a8.5 8.5 0 1 0 17 0 a8.5 8.5 0 1 0 -17 0z" fill="#3a7cc3"></path>
            <path d="M1445 765L1343 765L1241 663L1241 289L1309 221" stroke-width="5.67" stroke="#3a7cc3"></path>
            <path d="M1436.5 765 a8.5 8.5 0 1 0 17 0 a8.5 8.5 0 1 0 -17 0zM1300.5 221 a8.5 8.5 0 1 0 17 0 a8.5 8.5 0 1 0 -17 0z" fill="#3a7cc3"></path>
            <path d="M323 493L289 459L289 357L357 289L629 289" stroke-width="5.67" stroke="#3a7cc3"></path>
            <path d="M314.5 493 a8.5 8.5 0 1 0 17 0 a8.5 8.5 0 1 0 -17 0zM620.5 289 a8.5 8.5 0 1 0 17 0 a8.5 8.5 0 1 0 -17 0z" fill="#3a7cc3"></path>
            <path d="M51 561L289 561L391 663" stroke-width="5.67" stroke="#3a7cc3"></path>
            <path d="M42.5 561 a8.5 8.5 0 1 0 17 0 a8.5 8.5 0 1 0 -17 0zM382.5 663 a8.5 8.5 0 1 0 17 0 a8.5 8.5 0 1 0 -17 0z" fill="#3a7cc3"></path>
            <path d="M357 323L323 357L323 459L391 527L391 629" stroke-width="5.67" stroke="#3a7cc3"></path>
            <path d="M348.5 323 a8.5 8.5 0 1 0 17 0 a8.5 8.5 0 1 0 -17 0zM382.5 629 a8.5 8.5 0 1 0 17 0 a8.5 8.5 0 1 0 -17 0z" fill="#3a7cc3"></path>
            <path d="M1343 255L1343 221L1241 119" stroke-width="5.67" stroke="#3a7cc3"></path>
            <path d="M1334.5 255 a8.5 8.5 0 1 0 17 0 a8.5 8.5 0 1 0 -17 0zM1232.5 119 a8.5 8.5 0 1 0 17 0 a8.5 8.5 0 1 0 -17 0z" fill="#3a7cc3"></path>
            <path d="M1207 1139L1003 1139" stroke-width="5.67" stroke="#3a7cc3"></path>
            <path d="M1198.5 1139 a8.5 8.5 0 1 0 17 0 a8.5 8.5 0 1 0 -17 0zM994.5 1139 a8.5 8.5 0 1 0 17 0 a8.5 8.5 0 1 0 -17 0z" fill="#3a7cc3"></path>
            <path d="M1343 1207L1343 1105L1411 1037L1445 1037" stroke-width="5.67" stroke="#3a7cc3"></path>
            <path d="M1334.5 1207 a8.5 8.5 0 1 0 17 0 a8.5 8.5 0 1 0 -17 0zM1436.5 1037 a8.5 8.5 0 1 0 17 0 a8.5 8.5 0 1 0 -17 0z" fill="#3a7cc3"></path>
            <path d="M1343 153L1275 85" stroke-width="5.67" stroke="#3a7cc3"></path>
            <path d="M1334.5 153 a8.5 8.5 0 1 0 17 0 a8.5 8.5 0 1 0 -17 0zM1266.5 85 a8.5 8.5 0 1 0 17 0 a8.5 8.5 0 1 0 -17 0z" fill="#3a7cc3"></path>
            <path d="M1139 289L1207 289L1241 255L1241 153" stroke-width="5.67" stroke="#3a7cc3"></path>
            <path d="M1130.5 289 a8.5 8.5 0 1 0 17 0 a8.5 8.5 0 1 0 -17 0zM1232.5 153 a8.5 8.5 0 1 0 17 0 a8.5 8.5 0 1 0 -17 0z" fill="#3a7cc3"></path>
            <path d="M187 697L85 595L17 595" stroke-width="5.67" stroke="#3a7cc3"></path>
            <path d="M178.5 697 a8.5 8.5 0 1 0 17 0 a8.5 8.5 0 1 0 -17 0zM8.5 595 a8.5 8.5 0 1 0 17 0 a8.5 8.5 0 1 0 -17 0z" fill="#3a7cc3"></path>
            <path d="M289 765L255 765L221 731L221 595" stroke-width="5.67" stroke="#3a7cc3"></path>
            <path d="M280.5 765 a8.5 8.5 0 1 0 17 0 a8.5 8.5 0 1 0 -17 0zM212.5 595 a8.5 8.5 0 1 0 17 0 a8.5 8.5 0 1 0 -17 0z" fill="#3a7cc3"></path>
            <path d="M1105 935L1105 1003" stroke-width="5.67" stroke="#3a7cc3"></path>
            <path d="M1096.5 935 a8.5 8.5 0 1 0 17 0 a8.5 8.5 0 1 0 -17 0zM1096.5 1003 a8.5 8.5 0 1 0 17 0 a8.5 8.5 0 1 0 -17 0z" fill="#3a7cc3"></path>
            <path d="M1377 697L1377 629L1275 527L1275 289L1309 255" stroke-width="5.67" stroke="#3a7cc3"></path>
            <path d="M1368.5 697 a8.5 8.5 0 1 0 17 0 a8.5 8.5 0 1 0 -17 0zM1300.5 255 a8.5 8.5 0 1 0 17 0 a8.5 8.5 0 1 0 -17 0z" fill="#3a7cc3"></path>
            <path d="M119 425L17 527L17 561" stroke-width="5.67" stroke="#3a7cc3"></path>
            <path d="M110.5 425 a8.5 8.5 0 1 0 17 0 a8.5 8.5 0 1 0 -17 0zM8.5 561 a8.5 8.5 0 1 0 17 0 a8.5 8.5 0 1 0 -17 0z" fill="#3a7cc3"></path>
            <path d="M1343 527L1309 493L1309 289" stroke-width="5.67" stroke="#3a7cc3"></path>
            <path d="M1334.5 527 a8.5 8.5 0 1 0 17 0 a8.5 8.5 0 1 0 -17 0zM1300.5 289 a8.5 8.5 0 1 0 17 0 a8.5 8.5 0 1 0 -17 0z" fill="#3a7cc3"></path>
            <path d="M561 765L493 765L391 867L391 1037" stroke-width="5.67" stroke="#3a7cc3"></path>
            <path d="M552.5 765 a8.5 8.5 0 1 0 17 0 a8.5 8.5 0 1 0 -17 0zM382.5 1037 a8.5 8.5 0 1 0 17 0 a8.5 8.5 0 1 0 -17 0z" fill="#3a7cc3"></path>
            <path d="M391 119L425 119L493 51" stroke-width="5.67" stroke="#3a7cc3"></path>
            <path d="M382.5 119 a8.5 8.5 0 1 0 17 0 a8.5 8.5 0 1 0 -17 0zM484.5 51 a8.5 8.5 0 1 0 17 0 a8.5 8.5 0 1 0 -17 0z" fill="#3a7cc3"></path>
            <path d="M833 221L833 289L935 391L1003 391L1037 357" stroke-width="5.67" stroke="#3a7cc3"></path>
            <path d="M824.5 221 a8.5 8.5 0 1 0 17 0 a8.5 8.5 0 1 0 -17 0zM1028.5 357 a8.5 8.5 0 1 0 17 0 a8.5 8.5 0 1 0 -17 0z" fill="#3a7cc3"></path>
            <path d="M935 867L1037 867L1071 901L1071 1003" stroke-width="5.67" stroke="#3a7cc3"></path>
            <path d="M926.5 867 a8.5 8.5 0 1 0 17 0 a8.5 8.5 0 1 0 -17 0zM1062.5 1003 a8.5 8.5 0 1 0 17 0 a8.5 8.5 0 1 0 -17 0z" fill="#3a7cc3"></path>
            <path d="M85 833L17 765L17 731" stroke-width="5.67" stroke="#3a7cc3"></path>
            <path d="M76.5 833 a8.5 8.5 0 1 0 17 0 a8.5 8.5 0 1 0 -17 0zM8.5 731 a8.5 8.5 0 1 0 17 0 a8.5 8.5 0 1 0 -17 0z" fill="#3a7cc3"></path>
            <path d="M629 323L493 323" stroke-width="5.67" stroke="#3a7cc3"></path>
            <path d="M620.5 323 a8.5 8.5 0 1 0 17 0 a8.5 8.5 0 1 0 -17 0zM484.5 323 a8.5 8.5 0 1 0 17 0 a8.5 8.5 0 1 0 -17 0z" fill="#3a7cc3"></path>
            <path d="M493 221L629 221" stroke-width="5.67" stroke="#3a7cc3"></path>
            <path d="M484.5 221 a8.5 8.5 0 1 0 17 0 a8.5 8.5 0 1 0 -17 0zM620.5 221 a8.5 8.5 0 1 0 17 0 a8.5 8.5 0 1 0 -17 0z" fill="#3a7cc3"></path>
            <path d="M833 833L799 799L799 765L901 663" stroke-width="5.67" stroke="#3a7cc3"></path>
            <path d="M824.5 833 a8.5 8.5 0 1 0 17 0 a8.5 8.5 0 1 0 -17 0zM892.5 663 a8.5 8.5 0 1 0 17 0 a8.5 8.5 0 1 0 -17 0z" fill="#3a7cc3"></path>
            <path d="M799 901L799 833" stroke-width="5.67" stroke="#3a7cc3"></path>
            <path d="M790.5 901 a8.5 8.5 0 1 0 17 0 a8.5 8.5 0 1 0 -17 0zM790.5 833 a8.5 8.5 0 1 0 17 0 a8.5 8.5 0 1 0 -17 0z" fill="#3a7cc3"></path>
            <path d="M1275 663L1309 629L1343 629" stroke-width="5.67" stroke="#3a7cc3"></path>
            <path d="M1266.5 663 a8.5 8.5 0 1 0 17 0 a8.5 8.5 0 1 0 -17 0zM1334.5 629 a8.5 8.5 0 1 0 17 0 a8.5 8.5 0 1 0 -17 0z" fill="#3a7cc3"></path>
            <path d="M289 833L459 663L493 663" stroke-width="5.67" stroke="#3a7cc3"></path>
            <path d="M280.5 833 a8.5 8.5 0 1 0 17 0 a8.5 8.5 0 1 0 -17 0zM484.5 663 a8.5 8.5 0 1 0 17 0 a8.5 8.5 0 1 0 -17 0z" fill="#3a7cc3"></path>
            <path d="M187 765L153 731L51 731" stroke-width="5.67" stroke="#3a7cc3"></path>
            <path d="M178.5 765 a8.5 8.5 0 1 0 17 0 a8.5 8.5 0 1 0 -17 0zM42.5 731 a8.5 8.5 0 1 0 17 0 a8.5 8.5 0 1 0 -17 0z" fill="#3a7cc3"></path>
            <path d="M969 153L969 17" stroke-width="5.67" stroke="#3a7cc3"></path>
            <path d="M960.5 153 a8.5 8.5 0 1 0 17 0 a8.5 8.5 0 1 0 -17 0zM960.5 17 a8.5 8.5 0 1 0 17 0 a8.5 8.5 0 1 0 -17 0z" fill="#3a7cc3"></path>
            <path d="M1173 1105L1071 1105" stroke-width="5.67" stroke="#3a7cc3"></path>
            <path d="M1164.5 1105 a8.5 8.5 0 1 0 17 0 a8.5 8.5 0 1 0 -17 0zM1062.5 1105 a8.5 8.5 0 1 0 17 0 a8.5 8.5 0 1 0 -17 0z" fill="#3a7cc3"></path>
            <path d="M255 663L323 663L357 697" stroke-width="5.67" stroke="#3a7cc3"></path>
            <path d="M246.5 663 a8.5 8.5 0 1 0 17 0 a8.5 8.5 0 1 0 -17 0zM348.5 697 a8.5 8.5 0 1 0 17 0 a8.5 8.5 0 1 0 -17 0z" fill="#3a7cc3"></path>
            <path d="M17 935L17 1003" stroke-width="5.67" stroke="#3a7cc3"></path>
            <path d="M8.5 935 a8.5 8.5 0 1 0 17 0 a8.5 8.5 0 1 0 -17 0zM8.5 1003 a8.5 8.5 0 1 0 17 0 a8.5 8.5 0 1 0 -17 0z" fill="#3a7cc3"></path>
            <path d="M969 765L901 697" stroke-width="5.67" stroke="#3a7cc3"></path>
            <path d="M960.5 765 a8.5 8.5 0 1 0 17 0 a8.5 8.5 0 1 0 -17 0zM892.5 697 a8.5 8.5 0 1 0 17 0 a8.5 8.5 0 1 0 -17 0z" fill="#3a7cc3"></path>
            <path d="M153 833L187 799L221 799L289 867" stroke-width="5.67" stroke="#3a7cc3"></path>
            <path d="M144.5 833 a8.5 8.5 0 1 0 17 0 a8.5 8.5 0 1 0 -17 0zM280.5 867 a8.5 8.5 0 1 0 17 0 a8.5 8.5 0 1 0 -17 0z" fill="#3a7cc3"></path>
            <path d="M1207 459L1207 391" stroke-width="5.67" stroke="#3a7cc3"></path>
            <path d="M1198.5 459 a8.5 8.5 0 1 0 17 0 a8.5 8.5 0 1 0 -17 0zM1198.5 391 a8.5 8.5 0 1 0 17 0 a8.5 8.5 0 1 0 -17 0z" fill="#3a7cc3"></path>
            <path d="M51 765L153 765" stroke-width="5.67" stroke="#3a7cc3"></path>
            <path d="M42.5 765 a8.5 8.5 0 1 0 17 0 a8.5 8.5 0 1 0 -17 0zM144.5 765 a8.5 8.5 0 1 0 17 0 a8.5 8.5 0 1 0 -17 0z" fill="#3a7cc3"></path>
            <path d="M85 867L255 867" stroke-width="5.67" stroke="#3a7cc3"></path>
            <path d="M76.5 867 a8.5 8.5 0 1 0 17 0 a8.5 8.5 0 1 0 -17 0zM246.5 867 a8.5 8.5 0 1 0 17 0 a8.5 8.5 0 1 0 -17 0z" fill="#3a7cc3"></path>
            <path d="M1037 289L1105 289L1207 187L1207 153L1105 51L1003 51" stroke-width="5.67" stroke="#3a7cc3"></path>
            <path d="M1028.5 289 a8.5 8.5 0 1 0 17 0 a8.5 8.5 0 1 0 -17 0zM994.5 51 a8.5 8.5 0 1 0 17 0 a8.5 8.5 0 1 0 -17 0z" fill="#3a7cc3"></path>
            <path d="M187 493L153 527L119 527L85 493" stroke-width="5.67" stroke="#3a7cc3"></path>
            <path d="M178.5 493 a8.5 8.5 0 1 0 17 0 a8.5 8.5 0 1 0 -17 0zM76.5 493 a8.5 8.5 0 1 0 17 0 a8.5 8.5 0 1 0 -17 0z" fill="#3a7cc3"></path>
            <path d="M1207 935L1207 1003" stroke-width="5.67" stroke="#3a7cc3"></path>
            <path d="M1198.5 935 a8.5 8.5 0 1 0 17 0 a8.5 8.5 0 1 0 -17 0zM1198.5 1003 a8.5 8.5 0 1 0 17 0 a8.5 8.5 0 1 0 -17 0z" fill="#3a7cc3"></path>
            <path d="M425 391L459 391L595 527L663 527" stroke-width="5.67" stroke="#3a7cc3"></path>
            <path d="M416.5 391 a8.5 8.5 0 1 0 17 0 a8.5 8.5 0 1 0 -17 0zM654.5 527 a8.5 8.5 0 1 0 17 0 a8.5 8.5 0 1 0 -17 0z" fill="#3a7cc3"></path>
            <path d="M1003 901L1037 935L1037 1003" stroke-width="5.67" stroke="#3a7cc3"></path>
            <path d="M994.5 901 a8.5 8.5 0 1 0 17 0 a8.5 8.5 0 1 0 -17 0zM1028.5 1003 a8.5 8.5 0 1 0 17 0 a8.5 8.5 0 1 0 -17 0z" fill="#3a7cc3"></path>
            <path d="M459 425L459 629" stroke-width="5.67" stroke="#3a7cc3"></path>
            <path d="M450.5 425 a8.5 8.5 0 1 0 17 0 a8.5 8.5 0 1 0 -17 0zM450.5 629 a8.5 8.5 0 1 0 17 0 a8.5 8.5 0 1 0 -17 0z" fill="#3a7cc3"></path>
            <path d="M493 935L527 901L595 901" stroke-width="5.67" stroke="#3a7cc3"></path>
            <path d="M484.5 935 a8.5 8.5 0 1 0 17 0 a8.5 8.5 0 1 0 -17 0zM586.5 901 a8.5 8.5 0 1 0 17 0 a8.5 8.5 0 1 0 -17 0z" fill="#3a7cc3"></path>
            <path d="M1105 119L1139 119L1173 153L1173 187L1105 255L1037 255L969 187" stroke-width="5.67" stroke="#3a7cc3"></path>
            <path d="M1096.5 119 a8.5 8.5 0 1 0 17 0 a8.5 8.5 0 1 0 -17 0zM960.5 187 a8.5 8.5 0 1 0 17 0 a8.5 8.5 0 1 0 -17 0z" fill="#3a7cc3"></path>
            <path d="M357 1139L493 1139" stroke-width="5.67" stroke="#3a7cc3"></path>
            <path d="M348.5 1139 a8.5 8.5 0 1 0 17 0 a8.5 8.5 0 1 0 -17 0zM484.5 1139 a8.5 8.5 0 1 0 17 0 a8.5 8.5 0 1 0 -17 0z" fill="#3a7cc3"></path>
            <path d="M1105 323L1207 323" stroke-width="5.67" stroke="#3a7cc3"></path>
            <path d="M1096.5 323 a8.5 8.5 0 1 0 17 0 a8.5 8.5 0 1 0 -17 0zM1198.5 323 a8.5 8.5 0 1 0 17 0 a8.5 8.5 0 1 0 -17 0z" fill="#3a7cc3"></path>
            <path d="M391 357L391 493" stroke-width="5.67" stroke="#3a7cc3"></path>
            <path d="M382.5 357 a8.5 8.5 0 1 0 17 0 a8.5 8.5 0 1 0 -17 0zM382.5 493 a8.5 8.5 0 1 0 17 0 a8.5 8.5 0 1 0 -17 0z" fill="#3a7cc3"></path>
            <path d="M85 221L119 255L119 357" stroke-width="5.67" stroke="#3a7cc3"></path>
            <path d="M76.5 221 a8.5 8.5 0 1 0 17 0 a8.5 8.5 0 1 0 -17 0zM110.5 357 a8.5 8.5 0 1 0 17 0 a8.5 8.5 0 1 0 -17 0z" fill="#3a7cc3"></path>
            <path d="M459 901L561 799" stroke-width="5.67" stroke="#3a7cc3"></path>
            <path d="M450.5 901 a8.5 8.5 0 1 0 17 0 a8.5 8.5 0 1 0 -17 0zM552.5 799 a8.5 8.5 0 1 0 17 0 a8.5 8.5 0 1 0 -17 0z" fill="#3a7cc3"></path>
            <path d="M833 969L901 901L901 833" stroke-width="5.67" stroke="#3a7cc3"></path>
            <path d="M824.5 969 a8.5 8.5 0 1 0 17 0 a8.5 8.5 0 1 0 -17 0zM892.5 833 a8.5 8.5 0 1 0 17 0 a8.5 8.5 0 1 0 -17 0z" fill="#3a7cc3"></path>
            <path d="M527 935L425 1037" stroke-width="5.67" stroke="#3a7cc3"></path>
            <path d="M518.5 935 a8.5 8.5 0 1 0 17 0 a8.5 8.5 0 1 0 -17 0zM416.5 1037 a8.5 8.5 0 1 0 17 0 a8.5 8.5 0 1 0 -17 0z" fill="#3a7cc3"></path>
            <path d="M51 629L85 629L119 663" stroke-width="5.67" stroke="#3a7cc3"></path>
            <path d="M42.5 629 a8.5 8.5 0 1 0 17 0 a8.5 8.5 0 1 0 -17 0zM110.5 663 a8.5 8.5 0 1 0 17 0 a8.5 8.5 0 1 0 -17 0z" fill="#3a7cc3"></path>
            <path d="M153 493L255 391" stroke-width="5.67" stroke="#3a7cc3"></path>
            <path d="M144.5 493 a8.5 8.5 0 1 0 17 0 a8.5 8.5 0 1 0 -17 0zM246.5 391 a8.5 8.5 0 1 0 17 0 a8.5 8.5 0 1 0 -17 0z" fill="#3a7cc3"></path>
            <path d="M1343 323L1377 289L1377 153" stroke-width="5.67" stroke="#3a7cc3"></path>
            <path d="M1334.5 323 a8.5 8.5 0 1 0 17 0 a8.5 8.5 0 1 0 -17 0zM1368.5 153 a8.5 8.5 0 1 0 17 0 a8.5 8.5 0 1 0 -17 0z" fill="#3a7cc3"></path>
            <path d="M901 935L935 901L969 901L1003 935L1003 969" stroke-width="5.67" stroke="#3a7cc3"></path>
            <path d="M892.5 935 a8.5 8.5 0 1 0 17 0 a8.5 8.5 0 1 0 -17 0zM994.5 969 a8.5 8.5 0 1 0 17 0 a8.5 8.5 0 1 0 -17 0z" fill="#3a7cc3"></path>
            <path d="M255 1003L255 969L323 901" stroke-width="5.67" stroke="#3a7cc3"></path>
            <path d="M246.5 1003 a8.5 8.5 0 1 0 17 0 a8.5 8.5 0 1 0 -17 0zM314.5 901 a8.5 8.5 0 1 0 17 0 a8.5 8.5 0 1 0 -17 0z" fill="#3a7cc3"></path>
            <path d="M153 935L221 935L255 901" stroke-width="5.67" stroke="#3a7cc3"></path>
            <path d="M144.5 935 a8.5 8.5 0 1 0 17 0 a8.5 8.5 0 1 0 -17 0zM246.5 901 a8.5 8.5 0 1 0 17 0 a8.5 8.5 0 1 0 -17 0z" fill="#3a7cc3"></path>
            <path d="M1377 425L1377 323" stroke-width="5.67" stroke="#3a7cc3"></path>
            <path d="M1368.5 425 a8.5 8.5 0 1 0 17 0 a8.5 8.5 0 1 0 -17 0zM1368.5 323 a8.5 8.5 0 1 0 17 0 a8.5 8.5 0 1 0 -17 0z" fill="#3a7cc3"></path>
            <path d="M357 187L391 187L425 153" stroke-width="5.67" stroke="#3a7cc3"></path>
            <path d="M348.5 187 a8.5 8.5 0 1 0 17 0 a8.5 8.5 0 1 0 -17 0zM416.5 153 a8.5 8.5 0 1 0 17 0 a8.5 8.5 0 1 0 -17 0z" fill="#3a7cc3"></path>
            <path d="M221 1139L153 1207" stroke-width="5.67" stroke="#3a7cc3"></path>
            <path d="M212.5 1139 a8.5 8.5 0 1 0 17 0 a8.5 8.5 0 1 0 -17 0zM144.5 1207 a8.5 8.5 0 1 0 17 0 a8.5 8.5 0 1 0 -17 0z" fill="#3a7cc3"></path>
            <path d="M867 629L867 663L799 731" stroke-width="5.67" stroke="#3a7cc3"></path>
            <path d="M858.5 629 a8.5 8.5 0 1 0 17 0 a8.5 8.5 0 1 0 -17 0zM790.5 731 a8.5 8.5 0 1 0 17 0 a8.5 8.5 0 1 0 -17 0z" fill="#3a7cc3"></path>
            <path d="M1207 1105L1173 1071L1105 1071" stroke-width="5.67" stroke="#3a7cc3"></path>
            <path d="M1198.5 1105 a8.5 8.5 0 1 0 17 0 a8.5 8.5 0 1 0 -17 0zM1096.5 1071 a8.5 8.5 0 1 0 17 0 a8.5 8.5 0 1 0 -17 0z" fill="#3a7cc3"></path>
            <path d="M1003 833L935 833" stroke-width="5.67" stroke="#3a7cc3"></path>
            <path d="M994.5 833 a8.5 8.5 0 1 0 17 0 a8.5 8.5 0 1 0 -17 0zM926.5 833 a8.5 8.5 0 1 0 17 0 a8.5 8.5 0 1 0 -17 0z" fill="#3a7cc3"></path>
            <path d="M17 629L51 663L85 663" stroke-width="5.67" stroke="#3a7cc3"></path>
            <path d="M8.5 629 a8.5 8.5 0 1 0 17 0 a8.5 8.5 0 1 0 -17 0zM76.5 663 a8.5 8.5 0 1 0 17 0 a8.5 8.5 0 1 0 -17 0z" fill="#3a7cc3"></path>
            <path d="M1139 561L1071 493L1071 459L1105 425" stroke-width="5.67" stroke="#3a7cc3"></path>
            <path d="M1130.5 561 a8.5 8.5 0 1 0 17 0 a8.5 8.5 0 1 0 -17 0zM1096.5 425 a8.5 8.5 0 1 0 17 0 a8.5 8.5 0 1 0 -17 0z" fill="#3a7cc3"></path>
            <path d="M561 1037L459 1037" stroke-width="5.67" stroke="#3a7cc3"></path>
            <path d="M552.5 1037 a8.5 8.5 0 1 0 17 0 a8.5 8.5 0 1 0 -17 0zM450.5 1037 a8.5 8.5 0 1 0 17 0 a8.5 8.5 0 1 0 -17 0z" fill="#3a7cc3"></path>
            <path d="M1173 357L1105 357" stroke-width="5.67" stroke="#3a7cc3"></path>
            <path d="M1164.5 357 a8.5 8.5 0 1 0 17 0 a8.5 8.5 0 1 0 -17 0zM1096.5 357 a8.5 8.5 0 1 0 17 0 a8.5 8.5 0 1 0 -17 0z" fill="#3a7cc3"></path>
            <path d="M221 527L221 459L255 425" stroke-width="5.67" stroke="#3a7cc3"></path>
            <path d="M212.5 527 a8.5 8.5 0 1 0 17 0 a8.5 8.5 0 1 0 -17 0zM246.5 425 a8.5 8.5 0 1 0 17 0 a8.5 8.5 0 1 0 -17 0z" fill="#3a7cc3"></path>
            <path d="M629 1173L663 1139L663 1105L595 1037" stroke-width="5.67" stroke="#3a7cc3"></path>
            <path d="M620.5 1173 a8.5 8.5 0 1 0 17 0 a8.5 8.5 0 1 0 -17 0zM586.5 1037 a8.5 8.5 0 1 0 17 0 a8.5 8.5 0 1 0 -17 0z" fill="#3a7cc3"></path>
            <path d="M1275 561L1275 629" stroke-width="5.67" stroke="#3a7cc3"></path>
            <path d="M1266.5 561 a8.5 8.5 0 1 0 17 0 a8.5 8.5 0 1 0 -17 0zM1266.5 629 a8.5 8.5 0 1 0 17 0 a8.5 8.5 0 1 0 -17 0z" fill="#3a7cc3"></path>
            <path d="M1173 697L1241 765" stroke-width="5.67" stroke="#3a7cc3"></path>
            <path d="M1164.5 697 a8.5 8.5 0 1 0 17 0 a8.5 8.5 0 1 0 -17 0zM1232.5 765 a8.5 8.5 0 1 0 17 0 a8.5 8.5 0 1 0 -17 0z" fill="#3a7cc3"></path>
            <path d="M1343 697L1377 731L1445 731" stroke-width="5.67" stroke="#3a7cc3"></path>
            <path d="M1334.5 697 a8.5 8.5 0 1 0 17 0 a8.5 8.5 0 1 0 -17 0zM1436.5 731 a8.5 8.5 0 1 0 17 0 a8.5 8.5 0 1 0 -17 0z" fill="#3a7cc3"></path>
            <path d="M1139 867L1173 833L1275 833L1343 901L1377 901" stroke-width="5.67" stroke="#3a7cc3"></path>
            <path d="M1130.5 867 a8.5 8.5 0 1 0 17 0 a8.5 8.5 0 1 0 -17 0zM1368.5 901 a8.5 8.5 0 1 0 17 0 a8.5 8.5 0 1 0 -17 0z" fill="#3a7cc3"></path>
            <path d="M1445 1173L1377 1105" stroke-width="5.67" stroke="#3a7cc3"></path>
            <path d="M1436.5 1173 a8.5 8.5 0 1 0 17 0 a8.5 8.5 0 1 0 -17 0zM1368.5 1105 a8.5 8.5 0 1 0 17 0 a8.5 8.5 0 1 0 -17 0z" fill="#3a7cc3"></path>
            <path d="M289 493L357 561L357 595" stroke-width="5.67" stroke="#3a7cc3"></path>
            <path d="M280.5 493 a8.5 8.5 0 1 0 17 0 a8.5 8.5 0 1 0 -17 0zM348.5 595 a8.5 8.5 0 1 0 17 0 a8.5 8.5 0 1 0 -17 0z" fill="#3a7cc3"></path>
            <path d="M51 51L289 51" stroke-width="5.67" stroke="#3a7cc3"></path>
            <path d="M42.5 51 a8.5 8.5 0 1 0 17 0 a8.5 8.5 0 1 0 -17 0zM280.5 51 a8.5 8.5 0 1 0 17 0 a8.5 8.5 0 1 0 -17 0z" fill="#3a7cc3"></path>
            <path d="M85 425L17 425" stroke-width="5.67" stroke="#3a7cc3"></path>
            <path d="M76.5 425 a8.5 8.5 0 1 0 17 0 a8.5 8.5 0 1 0 -17 0zM8.5 425 a8.5 8.5 0 1 0 17 0 a8.5 8.5 0 1 0 -17 0z" fill="#3a7cc3"></path>
            <path d="M221 187L289 255L323 255" stroke-width="5.67" stroke="#3a7cc3"></path>
            <path d="M212.5 187 a8.5 8.5 0 1 0 17 0 a8.5 8.5 0 1 0 -17 0zM314.5 255 a8.5 8.5 0 1 0 17 0 a8.5 8.5 0 1 0 -17 0z" fill="#3a7cc3"></path>
            <path d="M833 1207L1037 1207" stroke-width="5.67" stroke="#3a7cc3"></path>
            <path d="M824.5 1207 a8.5 8.5 0 1 0 17 0 a8.5 8.5 0 1 0 -17 0zM1028.5 1207 a8.5 8.5 0 1 0 17 0 a8.5 8.5 0 1 0 -17 0z" fill="#3a7cc3"></path>
            <path d="M1071 833L1003 765" stroke-width="5.67" stroke="#3a7cc3"></path>
            <path d="M1062.5 833 a8.5 8.5 0 1 0 17 0 a8.5 8.5 0 1 0 -17 0zM994.5 765 a8.5 8.5 0 1 0 17 0 a8.5 8.5 0 1 0 -17 0z" fill="#3a7cc3"></path>
            <path d="M153 901L221 901" stroke-width="5.67" stroke="#3a7cc3"></path>
            <path d="M144.5 901 a8.5 8.5 0 1 0 17 0 a8.5 8.5 0 1 0 -17 0zM212.5 901 a8.5 8.5 0 1 0 17 0 a8.5 8.5 0 1 0 -17 0z" fill="#3a7cc3"></path>
            <path d="M1037 221L1105 221L1139 187L1139 153" stroke-width="5.67" stroke="#3a7cc3"></path>
            <path d="M1028.5 221 a8.5 8.5 0 1 0 17 0 a8.5 8.5 0 1 0 -17 0zM1130.5 153 a8.5 8.5 0 1 0 17 0 a8.5 8.5 0 1 0 -17 0z" fill="#3a7cc3"></path>
            <path d="M493 561L561 561" stroke-width="5.67" stroke="#3a7cc3"></path>
            <path d="M484.5 561 a8.5 8.5 0 1 0 17 0 a8.5 8.5 0 1 0 -17 0zM552.5 561 a8.5 8.5 0 1 0 17 0 a8.5 8.5 0 1 0 -17 0z" fill="#3a7cc3"></path>
            <path d="M731 357L799 357" stroke-width="5.67" stroke="#3a7cc3"></path>
            <path d="M722.5 357 a8.5 8.5 0 1 0 17 0 a8.5 8.5 0 1 0 -17 0zM790.5 357 a8.5 8.5 0 1 0 17 0 a8.5 8.5 0 1 0 -17 0z" fill="#3a7cc3"></path>
            <path d="M187 85L51 85" stroke-width="5.67" stroke="#3a7cc3"></path>
            <path d="M178.5 85 a8.5 8.5 0 1 0 17 0 a8.5 8.5 0 1 0 -17 0zM42.5 85 a8.5 8.5 0 1 0 17 0 a8.5 8.5 0 1 0 -17 0z" fill="#3a7cc3"></path>
            <path d="M289 1207L323 1173L357 1173L391 1207L493 1207" stroke-width="5.67" stroke="#3a7cc3"></path>
            <path d="M280.5 1207 a8.5 8.5 0 1 0 17 0 a8.5 8.5 0 1 0 -17 0zM484.5 1207 a8.5 8.5 0 1 0 17 0 a8.5 8.5 0 1 0 -17 0z" fill="#3a7cc3"></path>
            <path d="M561 187L459 187L425 221" stroke-width="5.67" stroke="#3a7cc3"></path>
            <path d="M552.5 187 a8.5 8.5 0 1 0 17 0 a8.5 8.5 0 1 0 -17 0zM416.5 221 a8.5 8.5 0 1 0 17 0 a8.5 8.5 0 1 0 -17 0z" fill="#3a7cc3"></path>
            <path d="M1343 17L1445 17" stroke-width="5.67" stroke="#3a7cc3"></path>
            <path d="M1334.5 17 a8.5 8.5 0 1 0 17 0 a8.5 8.5 0 1 0 -17 0zM1436.5 17 a8.5 8.5 0 1 0 17 0 a8.5 8.5 0 1 0 -17 0z" fill="#3a7cc3"></path>
            <path d="M221 289L187 255L187 187" stroke-width="5.67" stroke="#3a7cc3"></path>
            <path d="M212.5 289 a8.5 8.5 0 1 0 17 0 a8.5 8.5 0 1 0 -17 0zM178.5 187 a8.5 8.5 0 1 0 17 0 a8.5 8.5 0 1 0 -17 0z" fill="#3a7cc3"></path>
            <path d="M867 51L867 85L935 153" stroke-width="5.67" stroke="#3a7cc3"></path>
            <path d="M858.5 51 a8.5 8.5 0 1 0 17 0 a8.5 8.5 0 1 0 -17 0zM926.5 153 a8.5 8.5 0 1 0 17 0 a8.5 8.5 0 1 0 -17 0z" fill="#3a7cc3"></path>
            <path d="M1309 1207L1241 1207" stroke-width="5.67" stroke="#3a7cc3"></path>
            <path d="M1300.5 1207 a8.5 8.5 0 1 0 17 0 a8.5 8.5 0 1 0 -17 0zM1232.5 1207 a8.5 8.5 0 1 0 17 0 a8.5 8.5 0 1 0 -17 0z" fill="#3a7cc3"></path>
            <path d="M255 289L187 357" stroke-width="5.67" stroke="#3a7cc3"></path>
            <path d="M246.5 289 a8.5 8.5 0 1 0 17 0 a8.5 8.5 0 1 0 -17 0zM178.5 357 a8.5 8.5 0 1 0 17 0 a8.5 8.5 0 1 0 -17 0z" fill="#3a7cc3"></path>
            <path d="M1105 697L1105 629L1071 595" stroke-width="5.67" stroke="#3a7cc3"></path>
            <path d="M1096.5 697 a8.5 8.5 0 1 0 17 0 a8.5 8.5 0 1 0 -17 0zM1062.5 595 a8.5 8.5 0 1 0 17 0 a8.5 8.5 0 1 0 -17 0z" fill="#3a7cc3"></path>
            <path d="M867 255L901 289L935 289" stroke-width="5.67" stroke="#3a7cc3"></path>
            <path d="M858.5 255 a8.5 8.5 0 1 0 17 0 a8.5 8.5 0 1 0 -17 0zM926.5 289 a8.5 8.5 0 1 0 17 0 a8.5 8.5 0 1 0 -17 0z" fill="#3a7cc3"></path>
            <path d="M561 1105L595 1139L629 1139" stroke-width="5.67" stroke="#3a7cc3"></path>
            <path d="M552.5 1105 a8.5 8.5 0 1 0 17 0 a8.5 8.5 0 1 0 -17 0zM620.5 1139 a8.5 8.5 0 1 0 17 0 a8.5 8.5 0 1 0 -17 0z" fill="#3a7cc3"></path>
            <path d="M51 901L17 867L17 799" stroke-width="5.67" stroke="#3a7cc3"></path>
            <path d="M42.5 901 a8.5 8.5 0 1 0 17 0 a8.5 8.5 0 1 0 -17 0zM8.5 799 a8.5 8.5 0 1 0 17 0 a8.5 8.5 0 1 0 -17 0z" fill="#3a7cc3"></path>
            <path d="M1343 391L1343 459" stroke-width="5.67" stroke="#3a7cc3"></path>
            <path d="M1334.5 391 a8.5 8.5 0 1 0 17 0 a8.5 8.5 0 1 0 -17 0zM1334.5 459 a8.5 8.5 0 1 0 17 0 a8.5 8.5 0 1 0 -17 0z" fill="#3a7cc3"></path>
            <path d="M935 51L935 119" stroke-width="5.67" stroke="#3a7cc3"></path>
            <path d="M926.5 51 a8.5 8.5 0 1 0 17 0 a8.5 8.5 0 1 0 -17 0zM926.5 119 a8.5 8.5 0 1 0 17 0 a8.5 8.5 0 1 0 -17 0z" fill="#3a7cc3"></path>
            <path d="M731 391L765 391L833 459" stroke-width="5.67" stroke="#3a7cc3"></path>
            <path d="M722.5 391 a8.5 8.5 0 1 0 17 0 a8.5 8.5 0 1 0 -17 0zM824.5 459 a8.5 8.5 0 1 0 17 0 a8.5 8.5 0 1 0 -17 0z" fill="#3a7cc3"></path>
            <path d="M1377 51L1445 51" stroke-width="5.67" stroke="#3a7cc3"></path>
            <path d="M1368.5 51 a8.5 8.5 0 1 0 17 0 a8.5 8.5 0 1 0 -17 0zM1436.5 51 a8.5 8.5 0 1 0 17 0 a8.5 8.5 0 1 0 -17 0z" fill="#3a7cc3"></path>
            <path d="M1071 85L1003 85" stroke-width="5.67" stroke="#3a7cc3"></path>
            <path d="M1062.5 85 a8.5 8.5 0 1 0 17 0 a8.5 8.5 0 1 0 -17 0zM994.5 85 a8.5 8.5 0 1 0 17 0 a8.5 8.5 0 1 0 -17 0z" fill="#3a7cc3"></path>
            <path d="M119 901L85 901L51 935L51 969" stroke-width="5.67" stroke="#3a7cc3"></path>
            <path d="M110.5 901 a8.5 8.5 0 1 0 17 0 a8.5 8.5 0 1 0 -17 0zM42.5 969 a8.5 8.5 0 1 0 17 0 a8.5 8.5 0 1 0 -17 0z" fill="#3a7cc3"></path>
            <path d="M255 1173L221 1207L187 1207" stroke-width="5.67" stroke="#3a7cc3"></path>
            <path d="M246.5 1173 a8.5 8.5 0 1 0 17 0 a8.5 8.5 0 1 0 -17 0zM178.5 1207 a8.5 8.5 0 1 0 17 0 a8.5 8.5 0 1 0 -17 0z" fill="#3a7cc3"></path>
            <path d="M629 255L493 255" stroke-width="5.67" stroke="#3a7cc3"></path>
            <path d="M620.5 255 a8.5 8.5 0 1 0 17 0 a8.5 8.5 0 1 0 -17 0zM484.5 255 a8.5 8.5 0 1 0 17 0 a8.5 8.5 0 1 0 -17 0z" fill="#3a7cc3"></path>
            <path d="M187 663L187 595" stroke-width="5.67" stroke="#3a7cc3"></path>
            <path d="M178.5 663 a8.5 8.5 0 1 0 17 0 a8.5 8.5 0 1 0 -17 0zM178.5 595 a8.5 8.5 0 1 0 17 0 a8.5 8.5 0 1 0 -17 0z" fill="#3a7cc3"></path>
            <path d="M1003 119L1037 153L1105 153" stroke-width="5.67" stroke="#3a7cc3"></path>
            <path d="M994.5 119 a8.5 8.5 0 1 0 17 0 a8.5 8.5 0 1 0 -17 0zM1096.5 153 a8.5 8.5 0 1 0 17 0 a8.5 8.5 0 1 0 -17 0z" fill="#3a7cc3"></path>
            <path d="M323 969L323 1037" stroke-width="5.67" stroke="#3a7cc3"></path>
            <path d="M314.5 969 a8.5 8.5 0 1 0 17 0 a8.5 8.5 0 1 0 -17 0zM314.5 1037 a8.5 8.5 0 1 0 17 0 a8.5 8.5 0 1 0 -17 0z" fill="#3a7cc3"></path>
            <path d="M1207 561L1207 493" stroke-width="5.67" stroke="#3a7cc3"></path>
            <path d="M1198.5 561 a8.5 8.5 0 1 0 17 0 a8.5 8.5 0 1 0 -17 0zM1198.5 493 a8.5 8.5 0 1 0 17 0 a8.5 8.5 0 1 0 -17 0z" fill="#3a7cc3"></path>
        </g>
    </g>
    <defs>
        <mask id="SvgjsMask1067">
            <rect width="1440" height="1200" fill="#ffffff"></rect>
        </mask>
        <mask id="SvgjsMask1068">
            <rect width="1440" height="1200" fill="white"></rect>
            <path d="M1440.75 561 a4.25 4.25 0 1 0 8.5 0 a4.25 4.25 0 1 0 -8.5 0zM1202.75 85 a4.25 4.25 0 1 0 8.5 0 a4.25 4.25 0 1 0 -8.5 0z" fill="black"></path>
            <path d="M760.75 561 a4.25 4.25 0 1 0 8.5 0 a4.25 4.25 0 1 0 -8.5 0zM930.75 17 a4.25 4.25 0 1 0 8.5 0 a4.25 4.25 0 1 0 -8.5 0z" fill="black"></path>
            <path d="M318.75 17 a4.25 4.25 0 1 0 8.5 0 a4.25 4.25 0 1 0 -8.5 0zM794.75 17 a4.25 4.25 0 1 0 8.5 0 a4.25 4.25 0 1 0 -8.5 0z" fill="black"></path>
            <path d="M420.75 425 a4.25 4.25 0 1 0 8.5 0 a4.25 4.25 0 1 0 -8.5 0zM12.75 697 a4.25 4.25 0 1 0 8.5 0 a4.25 4.25 0 1 0 -8.5 0z" fill="black"></path>
            <path d="M1066.75 1207 a4.25 4.25 0 1 0 8.5 0 a4.25 4.25 0 1 0 -8.5 0zM1440.75 1003 a4.25 4.25 0 1 0 8.5 0 a4.25 4.25 0 1 0 -8.5 0z" fill="black"></path>
            <path d="M760.75 1207 a4.25 4.25 0 1 0 8.5 0 a4.25 4.25 0 1 0 -8.5 0zM624.75 561 a4.25 4.25 0 1 0 8.5 0 a4.25 4.25 0 1 0 -8.5 0z" fill="black"></path>
            <path d="M998.75 17 a4.25 4.25 0 1 0 8.5 0 a4.25 4.25 0 1 0 -8.5 0zM1236.75 17 a4.25 4.25 0 1 0 8.5 0 a4.25 4.25 0 1 0 -8.5 0z" fill="black"></path>
            <path d="M1236.75 935 a4.25 4.25 0 1 0 8.5 0 a4.25 4.25 0 1 0 -8.5 0zM794.75 1173 a4.25 4.25 0 1 0 8.5 0 a4.25 4.25 0 1 0 -8.5 0z" fill="black"></path>
            <path d="M998.75 731 a4.25 4.25 0 1 0 8.5 0 a4.25 4.25 0 1 0 -8.5 0zM794.75 85 a4.25 4.25 0 1 0 8.5 0 a4.25 4.25 0 1 0 -8.5 0z" fill="black"></path>
            <path d="M80.75 1071 a4.25 4.25 0 1 0 8.5 0 a4.25 4.25 0 1 0 -8.5 0zM726.75 1207 a4.25 4.25 0 1 0 8.5 0 a4.25 4.25 0 1 0 -8.5 0z" fill="black"></path>
            <path d="M1202.75 357 a4.25 4.25 0 1 0 8.5 0 a4.25 4.25 0 1 0 -8.5 0zM1440.75 969 a4.25 4.25 0 1 0 8.5 0 a4.25 4.25 0 1 0 -8.5 0z" fill="black"></path>
            <path d="M862.75 969 a4.25 4.25 0 1 0 8.5 0 a4.25 4.25 0 1 0 -8.5 0zM1202.75 1037 a4.25 4.25 0 1 0 8.5 0 a4.25 4.25 0 1 0 -8.5 0z" fill="black"></path>
            <path d="M556.75 1003 a4.25 4.25 0 1 0 8.5 0 a4.25 4.25 0 1 0 -8.5 0zM726.75 1173 a4.25 4.25 0 1 0 8.5 0 a4.25 4.25 0 1 0 -8.5 0z" fill="black"></path>
            <path d="M1270.75 1003 a4.25 4.25 0 1 0 8.5 0 a4.25 4.25 0 1 0 -8.5 0zM964.75 459 a4.25 4.25 0 1 0 8.5 0 a4.25 4.25 0 1 0 -8.5 0z" fill="black"></path>
            <path d="M998.75 255 a4.25 4.25 0 1 0 8.5 0 a4.25 4.25 0 1 0 -8.5 0zM828.75 51 a4.25 4.25 0 1 0 8.5 0 a4.25 4.25 0 1 0 -8.5 0z" fill="black"></path>
            <path d="M1168.75 867 a4.25 4.25 0 1 0 8.5 0 a4.25 4.25 0 1 0 -8.5 0zM1168.75 1003 a4.25 4.25 0 1 0 8.5 0 a4.25 4.25 0 1 0 -8.5 0z" fill="black"></path>
            <path d="M318.75 153 a4.25 4.25 0 1 0 8.5 0 a4.25 4.25 0 1 0 -8.5 0zM12.75 17 a4.25 4.25 0 1 0 8.5 0 a4.25 4.25 0 1 0 -8.5 0z" fill="black"></path>
            <path d="M1202.75 867 a4.25 4.25 0 1 0 8.5 0 a4.25 4.25 0 1 0 -8.5 0zM1372.75 969 a4.25 4.25 0 1 0 8.5 0 a4.25 4.25 0 1 0 -8.5 0z" fill="black"></path>
            <path d="M488.75 85 a4.25 4.25 0 1 0 8.5 0 a4.25 4.25 0 1 0 -8.5 0zM760.75 51 a4.25 4.25 0 1 0 8.5 0 a4.25 4.25 0 1 0 -8.5 0z" fill="black"></path>
            <path d="M964.75 527 a4.25 4.25 0 1 0 8.5 0 a4.25 4.25 0 1 0 -8.5 0zM1032.75 323 a4.25 4.25 0 1 0 8.5 0 a4.25 4.25 0 1 0 -8.5 0z" fill="black"></path>
            <path d="M794.75 391 a4.25 4.25 0 1 0 8.5 0 a4.25 4.25 0 1 0 -8.5 0zM1304.75 833 a4.25 4.25 0 1 0 8.5 0 a4.25 4.25 0 1 0 -8.5 0z" fill="black"></path>
            <path d="M386.75 1173 a4.25 4.25 0 1 0 8.5 0 a4.25 4.25 0 1 0 -8.5 0zM590.75 1207 a4.25 4.25 0 1 0 8.5 0 a4.25 4.25 0 1 0 -8.5 0z" fill="black"></path>
            <path d="M454.75 255 a4.25 4.25 0 1 0 8.5 0 a4.25 4.25 0 1 0 -8.5 0zM12.75 153 a4.25 4.25 0 1 0 8.5 0 a4.25 4.25 0 1 0 -8.5 0z" fill="black"></path>
            <path d="M1134.75 765 a4.25 4.25 0 1 0 8.5 0 a4.25 4.25 0 1 0 -8.5 0zM998.75 527 a4.25 4.25 0 1 0 8.5 0 a4.25 4.25 0 1 0 -8.5 0z" fill="black"></path>
            <path d="M148.75 1105 a4.25 4.25 0 1 0 8.5 0 a4.25 4.25 0 1 0 -8.5 0zM522.75 1139 a4.25 4.25 0 1 0 8.5 0 a4.25 4.25 0 1 0 -8.5 0z" fill="black"></path>
            <path d="M658.75 663 a4.25 4.25 0 1 0 8.5 0 a4.25 4.25 0 1 0 -8.5 0zM998.75 1105 a4.25 4.25 0 1 0 8.5 0 a4.25 4.25 0 1 0 -8.5 0z" fill="black"></path>
            <path d="M726.75 561 a4.25 4.25 0 1 0 8.5 0 a4.25 4.25 0 1 0 -8.5 0zM726.75 969 a4.25 4.25 0 1 0 8.5 0 a4.25 4.25 0 1 0 -8.5 0z" fill="black"></path>
            <path d="M624.75 85 a4.25 4.25 0 1 0 8.5 0 a4.25 4.25 0 1 0 -8.5 0zM12.75 119 a4.25 4.25 0 1 0 8.5 0 a4.25 4.25 0 1 0 -8.5 0z" fill="black"></path>
            <path d="M726.75 1037 a4.25 4.25 0 1 0 8.5 0 a4.25 4.25 0 1 0 -8.5 0zM896.75 1139 a4.25 4.25 0 1 0 8.5 0 a4.25 4.25 0 1 0 -8.5 0z" fill="black"></path>
            <path d="M1066.75 323 a4.25 4.25 0 1 0 8.5 0 a4.25 4.25 0 1 0 -8.5 0zM998.75 323 a4.25 4.25 0 1 0 8.5 0 a4.25 4.25 0 1 0 -8.5 0z" fill="black"></path>
            <path d="M216.75 85 a4.25 4.25 0 1 0 8.5 0 a4.25 4.25 0 1 0 -8.5 0zM284.75 119 a4.25 4.25 0 1 0 8.5 0 a4.25 4.25 0 1 0 -8.5 0z" fill="black"></path>
            <path d="M998.75 1071 a4.25 4.25 0 1 0 8.5 0 a4.25 4.25 0 1 0 -8.5 0zM794.75 561 a4.25 4.25 0 1 0 8.5 0 a4.25 4.25 0 1 0 -8.5 0z" fill="black"></path>
            <path d="M1134.75 391 a4.25 4.25 0 1 0 8.5 0 a4.25 4.25 0 1 0 -8.5 0zM1134.75 595 a4.25 4.25 0 1 0 8.5 0 a4.25 4.25 0 1 0 -8.5 0z" fill="black"></path>
            <path d="M148.75 187 a4.25 4.25 0 1 0 8.5 0 a4.25 4.25 0 1 0 -8.5 0zM148.75 357 a4.25 4.25 0 1 0 8.5 0 a4.25 4.25 0 1 0 -8.5 0z" fill="black"></path>
            <path d="M1202.75 119 a4.25 4.25 0 1 0 8.5 0 a4.25 4.25 0 1 0 -8.5 0zM1406.75 595 a4.25 4.25 0 1 0 8.5 0 a4.25 4.25 0 1 0 -8.5 0z" fill="black"></path>
            <path d="M488.75 459 a4.25 4.25 0 1 0 8.5 0 a4.25 4.25 0 1 0 -8.5 0zM352.75 1037 a4.25 4.25 0 1 0 8.5 0 a4.25 4.25 0 1 0 -8.5 0z" fill="black"></path>
            <path d="M488.75 153 a4.25 4.25 0 1 0 8.5 0 a4.25 4.25 0 1 0 -8.5 0zM726.75 85 a4.25 4.25 0 1 0 8.5 0 a4.25 4.25 0 1 0 -8.5 0z" fill="black"></path>
            <path d="M522.75 595 a4.25 4.25 0 1 0 8.5 0 a4.25 4.25 0 1 0 -8.5 0zM12.75 1037 a4.25 4.25 0 1 0 8.5 0 a4.25 4.25 0 1 0 -8.5 0z" fill="black"></path>
            <path d="M760.75 459 a4.25 4.25 0 1 0 8.5 0 a4.25 4.25 0 1 0 -8.5 0zM896.75 595 a4.25 4.25 0 1 0 8.5 0 a4.25 4.25 0 1 0 -8.5 0z" fill="black"></path>
            <path d="M454.75 323 a4.25 4.25 0 1 0 8.5 0 a4.25 4.25 0 1 0 -8.5 0zM692.75 935 a4.25 4.25 0 1 0 8.5 0 a4.25 4.25 0 1 0 -8.5 0z" fill="black"></path>
            <path d="M828.75 799 a4.25 4.25 0 1 0 8.5 0 a4.25 4.25 0 1 0 -8.5 0zM1134.75 1003 a4.25 4.25 0 1 0 8.5 0 a4.25 4.25 0 1 0 -8.5 0z" fill="black"></path>
            <path d="M318.75 221 a4.25 4.25 0 1 0 8.5 0 a4.25 4.25 0 1 0 -8.5 0zM46.75 357 a4.25 4.25 0 1 0 8.5 0 a4.25 4.25 0 1 0 -8.5 0z" fill="black"></path>
            <path d="M1440.75 765 a4.25 4.25 0 1 0 8.5 0 a4.25 4.25 0 1 0 -8.5 0zM1304.75 221 a4.25 4.25 0 1 0 8.5 0 a4.25 4.25 0 1 0 -8.5 0z" fill="black"></path>
            <path d="M318.75 493 a4.25 4.25 0 1 0 8.5 0 a4.25 4.25 0 1 0 -8.5 0zM624.75 289 a4.25 4.25 0 1 0 8.5 0 a4.25 4.25 0 1 0 -8.5 0z" fill="black"></path>
            <path d="M46.75 561 a4.25 4.25 0 1 0 8.5 0 a4.25 4.25 0 1 0 -8.5 0zM386.75 663 a4.25 4.25 0 1 0 8.5 0 a4.25 4.25 0 1 0 -8.5 0z" fill="black"></path>
            <path d="M352.75 323 a4.25 4.25 0 1 0 8.5 0 a4.25 4.25 0 1 0 -8.5 0zM386.75 629 a4.25 4.25 0 1 0 8.5 0 a4.25 4.25 0 1 0 -8.5 0z" fill="black"></path>
            <path d="M1338.75 255 a4.25 4.25 0 1 0 8.5 0 a4.25 4.25 0 1 0 -8.5 0zM1236.75 119 a4.25 4.25 0 1 0 8.5 0 a4.25 4.25 0 1 0 -8.5 0z" fill="black"></path>
            <path d="M1202.75 1139 a4.25 4.25 0 1 0 8.5 0 a4.25 4.25 0 1 0 -8.5 0zM998.75 1139 a4.25 4.25 0 1 0 8.5 0 a4.25 4.25 0 1 0 -8.5 0z" fill="black"></path>
            <path d="M1338.75 1207 a4.25 4.25 0 1 0 8.5 0 a4.25 4.25 0 1 0 -8.5 0zM1440.75 1037 a4.25 4.25 0 1 0 8.5 0 a4.25 4.25 0 1 0 -8.5 0z" fill="black"></path>
            <path d="M1338.75 153 a4.25 4.25 0 1 0 8.5 0 a4.25 4.25 0 1 0 -8.5 0zM1270.75 85 a4.25 4.25 0 1 0 8.5 0 a4.25 4.25 0 1 0 -8.5 0z" fill="black"></path>
            <path d="M1134.75 289 a4.25 4.25 0 1 0 8.5 0 a4.25 4.25 0 1 0 -8.5 0zM1236.75 153 a4.25 4.25 0 1 0 8.5 0 a4.25 4.25 0 1 0 -8.5 0z" fill="black"></path>
            <path d="M182.75 697 a4.25 4.25 0 1 0 8.5 0 a4.25 4.25 0 1 0 -8.5 0zM12.75 595 a4.25 4.25 0 1 0 8.5 0 a4.25 4.25 0 1 0 -8.5 0z" fill="black"></path>
            <path d="M284.75 765 a4.25 4.25 0 1 0 8.5 0 a4.25 4.25 0 1 0 -8.5 0zM216.75 595 a4.25 4.25 0 1 0 8.5 0 a4.25 4.25 0 1 0 -8.5 0z" fill="black"></path>
            <path d="M1100.75 935 a4.25 4.25 0 1 0 8.5 0 a4.25 4.25 0 1 0 -8.5 0zM1100.75 1003 a4.25 4.25 0 1 0 8.5 0 a4.25 4.25 0 1 0 -8.5 0z" fill="black"></path>
            <path d="M1372.75 697 a4.25 4.25 0 1 0 8.5 0 a4.25 4.25 0 1 0 -8.5 0zM1304.75 255 a4.25 4.25 0 1 0 8.5 0 a4.25 4.25 0 1 0 -8.5 0z" fill="black"></path>
            <path d="M114.75 425 a4.25 4.25 0 1 0 8.5 0 a4.25 4.25 0 1 0 -8.5 0zM12.75 561 a4.25 4.25 0 1 0 8.5 0 a4.25 4.25 0 1 0 -8.5 0z" fill="black"></path>
            <path d="M1338.75 527 a4.25 4.25 0 1 0 8.5 0 a4.25 4.25 0 1 0 -8.5 0zM1304.75 289 a4.25 4.25 0 1 0 8.5 0 a4.25 4.25 0 1 0 -8.5 0z" fill="black"></path>
            <path d="M556.75 765 a4.25 4.25 0 1 0 8.5 0 a4.25 4.25 0 1 0 -8.5 0zM386.75 1037 a4.25 4.25 0 1 0 8.5 0 a4.25 4.25 0 1 0 -8.5 0z" fill="black"></path>
            <path d="M386.75 119 a4.25 4.25 0 1 0 8.5 0 a4.25 4.25 0 1 0 -8.5 0zM488.75 51 a4.25 4.25 0 1 0 8.5 0 a4.25 4.25 0 1 0 -8.5 0z" fill="black"></path>
            <path d="M828.75 221 a4.25 4.25 0 1 0 8.5 0 a4.25 4.25 0 1 0 -8.5 0zM1032.75 357 a4.25 4.25 0 1 0 8.5 0 a4.25 4.25 0 1 0 -8.5 0z" fill="black"></path>
            <path d="M930.75 867 a4.25 4.25 0 1 0 8.5 0 a4.25 4.25 0 1 0 -8.5 0zM1066.75 1003 a4.25 4.25 0 1 0 8.5 0 a4.25 4.25 0 1 0 -8.5 0z" fill="black"></path>
            <path d="M80.75 833 a4.25 4.25 0 1 0 8.5 0 a4.25 4.25 0 1 0 -8.5 0zM12.75 731 a4.25 4.25 0 1 0 8.5 0 a4.25 4.25 0 1 0 -8.5 0z" fill="black"></path>
            <path d="M624.75 323 a4.25 4.25 0 1 0 8.5 0 a4.25 4.25 0 1 0 -8.5 0zM488.75 323 a4.25 4.25 0 1 0 8.5 0 a4.25 4.25 0 1 0 -8.5 0z" fill="black"></path>
            <path d="M488.75 221 a4.25 4.25 0 1 0 8.5 0 a4.25 4.25 0 1 0 -8.5 0zM624.75 221 a4.25 4.25 0 1 0 8.5 0 a4.25 4.25 0 1 0 -8.5 0z" fill="black"></path>
            <path d="M828.75 833 a4.25 4.25 0 1 0 8.5 0 a4.25 4.25 0 1 0 -8.5 0zM896.75 663 a4.25 4.25 0 1 0 8.5 0 a4.25 4.25 0 1 0 -8.5 0z" fill="black"></path>
            <path d="M794.75 901 a4.25 4.25 0 1 0 8.5 0 a4.25 4.25 0 1 0 -8.5 0zM794.75 833 a4.25 4.25 0 1 0 8.5 0 a4.25 4.25 0 1 0 -8.5 0z" fill="black"></path>
            <path d="M1270.75 663 a4.25 4.25 0 1 0 8.5 0 a4.25 4.25 0 1 0 -8.5 0zM1338.75 629 a4.25 4.25 0 1 0 8.5 0 a4.25 4.25 0 1 0 -8.5 0z" fill="black"></path>
            <path d="M284.75 833 a4.25 4.25 0 1 0 8.5 0 a4.25 4.25 0 1 0 -8.5 0zM488.75 663 a4.25 4.25 0 1 0 8.5 0 a4.25 4.25 0 1 0 -8.5 0z" fill="black"></path>
            <path d="M182.75 765 a4.25 4.25 0 1 0 8.5 0 a4.25 4.25 0 1 0 -8.5 0zM46.75 731 a4.25 4.25 0 1 0 8.5 0 a4.25 4.25 0 1 0 -8.5 0z" fill="black"></path>
            <path d="M964.75 153 a4.25 4.25 0 1 0 8.5 0 a4.25 4.25 0 1 0 -8.5 0zM964.75 17 a4.25 4.25 0 1 0 8.5 0 a4.25 4.25 0 1 0 -8.5 0z" fill="black"></path>
            <path d="M1168.75 1105 a4.25 4.25 0 1 0 8.5 0 a4.25 4.25 0 1 0 -8.5 0zM1066.75 1105 a4.25 4.25 0 1 0 8.5 0 a4.25 4.25 0 1 0 -8.5 0z" fill="black"></path>
            <path d="M250.75 663 a4.25 4.25 0 1 0 8.5 0 a4.25 4.25 0 1 0 -8.5 0zM352.75 697 a4.25 4.25 0 1 0 8.5 0 a4.25 4.25 0 1 0 -8.5 0z" fill="black"></path>
            <path d="M12.75 935 a4.25 4.25 0 1 0 8.5 0 a4.25 4.25 0 1 0 -8.5 0zM12.75 1003 a4.25 4.25 0 1 0 8.5 0 a4.25 4.25 0 1 0 -8.5 0z" fill="black"></path>
            <path d="M964.75 765 a4.25 4.25 0 1 0 8.5 0 a4.25 4.25 0 1 0 -8.5 0zM896.75 697 a4.25 4.25 0 1 0 8.5 0 a4.25 4.25 0 1 0 -8.5 0z" fill="black"></path>
            <path d="M148.75 833 a4.25 4.25 0 1 0 8.5 0 a4.25 4.25 0 1 0 -8.5 0zM284.75 867 a4.25 4.25 0 1 0 8.5 0 a4.25 4.25 0 1 0 -8.5 0z" fill="black"></path>
            <path d="M1202.75 459 a4.25 4.25 0 1 0 8.5 0 a4.25 4.25 0 1 0 -8.5 0zM1202.75 391 a4.25 4.25 0 1 0 8.5 0 a4.25 4.25 0 1 0 -8.5 0z" fill="black"></path>
            <path d="M46.75 765 a4.25 4.25 0 1 0 8.5 0 a4.25 4.25 0 1 0 -8.5 0zM148.75 765 a4.25 4.25 0 1 0 8.5 0 a4.25 4.25 0 1 0 -8.5 0z" fill="black"></path>
            <path d="M80.75 867 a4.25 4.25 0 1 0 8.5 0 a4.25 4.25 0 1 0 -8.5 0zM250.75 867 a4.25 4.25 0 1 0 8.5 0 a4.25 4.25 0 1 0 -8.5 0z" fill="black"></path>
            <path d="M1032.75 289 a4.25 4.25 0 1 0 8.5 0 a4.25 4.25 0 1 0 -8.5 0zM998.75 51 a4.25 4.25 0 1 0 8.5 0 a4.25 4.25 0 1 0 -8.5 0z" fill="black"></path>
            <path d="M182.75 493 a4.25 4.25 0 1 0 8.5 0 a4.25 4.25 0 1 0 -8.5 0zM80.75 493 a4.25 4.25 0 1 0 8.5 0 a4.25 4.25 0 1 0 -8.5 0z" fill="black"></path>
            <path d="M1202.75 935 a4.25 4.25 0 1 0 8.5 0 a4.25 4.25 0 1 0 -8.5 0zM1202.75 1003 a4.25 4.25 0 1 0 8.5 0 a4.25 4.25 0 1 0 -8.5 0z" fill="black"></path>
            <path d="M420.75 391 a4.25 4.25 0 1 0 8.5 0 a4.25 4.25 0 1 0 -8.5 0zM658.75 527 a4.25 4.25 0 1 0 8.5 0 a4.25 4.25 0 1 0 -8.5 0z" fill="black"></path>
            <path d="M998.75 901 a4.25 4.25 0 1 0 8.5 0 a4.25 4.25 0 1 0 -8.5 0zM1032.75 1003 a4.25 4.25 0 1 0 8.5 0 a4.25 4.25 0 1 0 -8.5 0z" fill="black"></path>
            <path d="M454.75 425 a4.25 4.25 0 1 0 8.5 0 a4.25 4.25 0 1 0 -8.5 0zM454.75 629 a4.25 4.25 0 1 0 8.5 0 a4.25 4.25 0 1 0 -8.5 0z" fill="black"></path>
            <path d="M488.75 935 a4.25 4.25 0 1 0 8.5 0 a4.25 4.25 0 1 0 -8.5 0zM590.75 901 a4.25 4.25 0 1 0 8.5 0 a4.25 4.25 0 1 0 -8.5 0z" fill="black"></path>
            <path d="M1100.75 119 a4.25 4.25 0 1 0 8.5 0 a4.25 4.25 0 1 0 -8.5 0zM964.75 187 a4.25 4.25 0 1 0 8.5 0 a4.25 4.25 0 1 0 -8.5 0z" fill="black"></path>
            <path d="M352.75 1139 a4.25 4.25 0 1 0 8.5 0 a4.25 4.25 0 1 0 -8.5 0zM488.75 1139 a4.25 4.25 0 1 0 8.5 0 a4.25 4.25 0 1 0 -8.5 0z" fill="black"></path>
            <path d="M1100.75 323 a4.25 4.25 0 1 0 8.5 0 a4.25 4.25 0 1 0 -8.5 0zM1202.75 323 a4.25 4.25 0 1 0 8.5 0 a4.25 4.25 0 1 0 -8.5 0z" fill="black"></path>
            <path d="M386.75 357 a4.25 4.25 0 1 0 8.5 0 a4.25 4.25 0 1 0 -8.5 0zM386.75 493 a4.25 4.25 0 1 0 8.5 0 a4.25 4.25 0 1 0 -8.5 0z" fill="black"></path>
            <path d="M80.75 221 a4.25 4.25 0 1 0 8.5 0 a4.25 4.25 0 1 0 -8.5 0zM114.75 357 a4.25 4.25 0 1 0 8.5 0 a4.25 4.25 0 1 0 -8.5 0z" fill="black"></path>
            <path d="M454.75 901 a4.25 4.25 0 1 0 8.5 0 a4.25 4.25 0 1 0 -8.5 0zM556.75 799 a4.25 4.25 0 1 0 8.5 0 a4.25 4.25 0 1 0 -8.5 0z" fill="black"></path>
            <path d="M828.75 969 a4.25 4.25 0 1 0 8.5 0 a4.25 4.25 0 1 0 -8.5 0zM896.75 833 a4.25 4.25 0 1 0 8.5 0 a4.25 4.25 0 1 0 -8.5 0z" fill="black"></path>
            <path d="M522.75 935 a4.25 4.25 0 1 0 8.5 0 a4.25 4.25 0 1 0 -8.5 0zM420.75 1037 a4.25 4.25 0 1 0 8.5 0 a4.25 4.25 0 1 0 -8.5 0z" fill="black"></path>
            <path d="M46.75 629 a4.25 4.25 0 1 0 8.5 0 a4.25 4.25 0 1 0 -8.5 0zM114.75 663 a4.25 4.25 0 1 0 8.5 0 a4.25 4.25 0 1 0 -8.5 0z" fill="black"></path>
            <path d="M148.75 493 a4.25 4.25 0 1 0 8.5 0 a4.25 4.25 0 1 0 -8.5 0zM250.75 391 a4.25 4.25 0 1 0 8.5 0 a4.25 4.25 0 1 0 -8.5 0z" fill="black"></path>
            <path d="M1338.75 323 a4.25 4.25 0 1 0 8.5 0 a4.25 4.25 0 1 0 -8.5 0zM1372.75 153 a4.25 4.25 0 1 0 8.5 0 a4.25 4.25 0 1 0 -8.5 0z" fill="black"></path>
            <path d="M896.75 935 a4.25 4.25 0 1 0 8.5 0 a4.25 4.25 0 1 0 -8.5 0zM998.75 969 a4.25 4.25 0 1 0 8.5 0 a4.25 4.25 0 1 0 -8.5 0z" fill="black"></path>
            <path d="M250.75 1003 a4.25 4.25 0 1 0 8.5 0 a4.25 4.25 0 1 0 -8.5 0zM318.75 901 a4.25 4.25 0 1 0 8.5 0 a4.25 4.25 0 1 0 -8.5 0z" fill="black"></path>
            <path d="M148.75 935 a4.25 4.25 0 1 0 8.5 0 a4.25 4.25 0 1 0 -8.5 0zM250.75 901 a4.25 4.25 0 1 0 8.5 0 a4.25 4.25 0 1 0 -8.5 0z" fill="black"></path>
            <path d="M1372.75 425 a4.25 4.25 0 1 0 8.5 0 a4.25 4.25 0 1 0 -8.5 0zM1372.75 323 a4.25 4.25 0 1 0 8.5 0 a4.25 4.25 0 1 0 -8.5 0z" fill="black"></path>
            <path d="M352.75 187 a4.25 4.25 0 1 0 8.5 0 a4.25 4.25 0 1 0 -8.5 0zM420.75 153 a4.25 4.25 0 1 0 8.5 0 a4.25 4.25 0 1 0 -8.5 0z" fill="black"></path>
            <path d="M216.75 1139 a4.25 4.25 0 1 0 8.5 0 a4.25 4.25 0 1 0 -8.5 0zM148.75 1207 a4.25 4.25 0 1 0 8.5 0 a4.25 4.25 0 1 0 -8.5 0z" fill="black"></path>
            <path d="M862.75 629 a4.25 4.25 0 1 0 8.5 0 a4.25 4.25 0 1 0 -8.5 0zM794.75 731 a4.25 4.25 0 1 0 8.5 0 a4.25 4.25 0 1 0 -8.5 0z" fill="black"></path>
            <path d="M1202.75 1105 a4.25 4.25 0 1 0 8.5 0 a4.25 4.25 0 1 0 -8.5 0zM1100.75 1071 a4.25 4.25 0 1 0 8.5 0 a4.25 4.25 0 1 0 -8.5 0z" fill="black"></path>
            <path d="M998.75 833 a4.25 4.25 0 1 0 8.5 0 a4.25 4.25 0 1 0 -8.5 0zM930.75 833 a4.25 4.25 0 1 0 8.5 0 a4.25 4.25 0 1 0 -8.5 0z" fill="black"></path>
            <path d="M12.75 629 a4.25 4.25 0 1 0 8.5 0 a4.25 4.25 0 1 0 -8.5 0zM80.75 663 a4.25 4.25 0 1 0 8.5 0 a4.25 4.25 0 1 0 -8.5 0z" fill="black"></path>
            <path d="M1134.75 561 a4.25 4.25 0 1 0 8.5 0 a4.25 4.25 0 1 0 -8.5 0zM1100.75 425 a4.25 4.25 0 1 0 8.5 0 a4.25 4.25 0 1 0 -8.5 0z" fill="black"></path>
            <path d="M556.75 1037 a4.25 4.25 0 1 0 8.5 0 a4.25 4.25 0 1 0 -8.5 0zM454.75 1037 a4.25 4.25 0 1 0 8.5 0 a4.25 4.25 0 1 0 -8.5 0z" fill="black"></path>
            <path d="M1168.75 357 a4.25 4.25 0 1 0 8.5 0 a4.25 4.25 0 1 0 -8.5 0zM1100.75 357 a4.25 4.25 0 1 0 8.5 0 a4.25 4.25 0 1 0 -8.5 0z" fill="black"></path>
            <path d="M216.75 527 a4.25 4.25 0 1 0 8.5 0 a4.25 4.25 0 1 0 -8.5 0zM250.75 425 a4.25 4.25 0 1 0 8.5 0 a4.25 4.25 0 1 0 -8.5 0z" fill="black"></path>
            <path d="M624.75 1173 a4.25 4.25 0 1 0 8.5 0 a4.25 4.25 0 1 0 -8.5 0zM590.75 1037 a4.25 4.25 0 1 0 8.5 0 a4.25 4.25 0 1 0 -8.5 0z" fill="black"></path>
            <path d="M1270.75 561 a4.25 4.25 0 1 0 8.5 0 a4.25 4.25 0 1 0 -8.5 0zM1270.75 629 a4.25 4.25 0 1 0 8.5 0 a4.25 4.25 0 1 0 -8.5 0z" fill="black"></path>
            <path d="M1168.75 697 a4.25 4.25 0 1 0 8.5 0 a4.25 4.25 0 1 0 -8.5 0zM1236.75 765 a4.25 4.25 0 1 0 8.5 0 a4.25 4.25 0 1 0 -8.5 0z" fill="black"></path>
            <path d="M1338.75 697 a4.25 4.25 0 1 0 8.5 0 a4.25 4.25 0 1 0 -8.5 0zM1440.75 731 a4.25 4.25 0 1 0 8.5 0 a4.25 4.25 0 1 0 -8.5 0z" fill="black"></path>
            <path d="M1134.75 867 a4.25 4.25 0 1 0 8.5 0 a4.25 4.25 0 1 0 -8.5 0zM1372.75 901 a4.25 4.25 0 1 0 8.5 0 a4.25 4.25 0 1 0 -8.5 0z" fill="black"></path>
            <path d="M1440.75 1173 a4.25 4.25 0 1 0 8.5 0 a4.25 4.25 0 1 0 -8.5 0zM1372.75 1105 a4.25 4.25 0 1 0 8.5 0 a4.25 4.25 0 1 0 -8.5 0z" fill="black"></path>
            <path d="M284.75 493 a4.25 4.25 0 1 0 8.5 0 a4.25 4.25 0 1 0 -8.5 0zM352.75 595 a4.25 4.25 0 1 0 8.5 0 a4.25 4.25 0 1 0 -8.5 0z" fill="black"></path>
            <path d="M46.75 51 a4.25 4.25 0 1 0 8.5 0 a4.25 4.25 0 1 0 -8.5 0zM284.75 51 a4.25 4.25 0 1 0 8.5 0 a4.25 4.25 0 1 0 -8.5 0z" fill="black"></path>
            <path d="M80.75 425 a4.25 4.25 0 1 0 8.5 0 a4.25 4.25 0 1 0 -8.5 0zM12.75 425 a4.25 4.25 0 1 0 8.5 0 a4.25 4.25 0 1 0 -8.5 0z" fill="black"></path>
            <path d="M216.75 187 a4.25 4.25 0 1 0 8.5 0 a4.25 4.25 0 1 0 -8.5 0zM318.75 255 a4.25 4.25 0 1 0 8.5 0 a4.25 4.25 0 1 0 -8.5 0z" fill="black"></path>
            <path d="M828.75 1207 a4.25 4.25 0 1 0 8.5 0 a4.25 4.25 0 1 0 -8.5 0zM1032.75 1207 a4.25 4.25 0 1 0 8.5 0 a4.25 4.25 0 1 0 -8.5 0z" fill="black"></path>
            <path d="M1066.75 833 a4.25 4.25 0 1 0 8.5 0 a4.25 4.25 0 1 0 -8.5 0zM998.75 765 a4.25 4.25 0 1 0 8.5 0 a4.25 4.25 0 1 0 -8.5 0z" fill="black"></path>
            <path d="M148.75 901 a4.25 4.25 0 1 0 8.5 0 a4.25 4.25 0 1 0 -8.5 0zM216.75 901 a4.25 4.25 0 1 0 8.5 0 a4.25 4.25 0 1 0 -8.5 0z" fill="black"></path>
            <path d="M1032.75 221 a4.25 4.25 0 1 0 8.5 0 a4.25 4.25 0 1 0 -8.5 0zM1134.75 153 a4.25 4.25 0 1 0 8.5 0 a4.25 4.25 0 1 0 -8.5 0z" fill="black"></path>
            <path d="M488.75 561 a4.25 4.25 0 1 0 8.5 0 a4.25 4.25 0 1 0 -8.5 0zM556.75 561 a4.25 4.25 0 1 0 8.5 0 a4.25 4.25 0 1 0 -8.5 0z" fill="black"></path>
            <path d="M726.75 357 a4.25 4.25 0 1 0 8.5 0 a4.25 4.25 0 1 0 -8.5 0zM794.75 357 a4.25 4.25 0 1 0 8.5 0 a4.25 4.25 0 1 0 -8.5 0z" fill="black"></path>
            <path d="M182.75 85 a4.25 4.25 0 1 0 8.5 0 a4.25 4.25 0 1 0 -8.5 0zM46.75 85 a4.25 4.25 0 1 0 8.5 0 a4.25 4.25 0 1 0 -8.5 0z" fill="black"></path>
            <path d="M284.75 1207 a4.25 4.25 0 1 0 8.5 0 a4.25 4.25 0 1 0 -8.5 0zM488.75 1207 a4.25 4.25 0 1 0 8.5 0 a4.25 4.25 0 1 0 -8.5 0z" fill="black"></path>
            <path d="M556.75 187 a4.25 4.25 0 1 0 8.5 0 a4.25 4.25 0 1 0 -8.5 0zM420.75 221 a4.25 4.25 0 1 0 8.5 0 a4.25 4.25 0 1 0 -8.5 0z" fill="black"></path>
            <path d="M1338.75 17 a4.25 4.25 0 1 0 8.5 0 a4.25 4.25 0 1 0 -8.5 0zM1440.75 17 a4.25 4.25 0 1 0 8.5 0 a4.25 4.25 0 1 0 -8.5 0z" fill="black"></path>
            <path d="M216.75 289 a4.25 4.25 0 1 0 8.5 0 a4.25 4.25 0 1 0 -8.5 0zM182.75 187 a4.25 4.25 0 1 0 8.5 0 a4.25 4.25 0 1 0 -8.5 0z" fill="black"></path>
            <path d="M862.75 51 a4.25 4.25 0 1 0 8.5 0 a4.25 4.25 0 1 0 -8.5 0zM930.75 153 a4.25 4.25 0 1 0 8.5 0 a4.25 4.25 0 1 0 -8.5 0z" fill="black"></path>
            <path d="M1304.75 1207 a4.25 4.25 0 1 0 8.5 0 a4.25 4.25 0 1 0 -8.5 0zM1236.75 1207 a4.25 4.25 0 1 0 8.5 0 a4.25 4.25 0 1 0 -8.5 0z" fill="black"></path>
            <path d="M250.75 289 a4.25 4.25 0 1 0 8.5 0 a4.25 4.25 0 1 0 -8.5 0zM182.75 357 a4.25 4.25 0 1 0 8.5 0 a4.25 4.25 0 1 0 -8.5 0z" fill="black"></path>
            <path d="M1100.75 697 a4.25 4.25 0 1 0 8.5 0 a4.25 4.25 0 1 0 -8.5 0zM1066.75 595 a4.25 4.25 0 1 0 8.5 0 a4.25 4.25 0 1 0 -8.5 0z" fill="black"></path>
            <path d="M862.75 255 a4.25 4.25 0 1 0 8.5 0 a4.25 4.25 0 1 0 -8.5 0zM930.75 289 a4.25 4.25 0 1 0 8.5 0 a4.25 4.25 0 1 0 -8.5 0z" fill="black"></path>
            <path d="M556.75 1105 a4.25 4.25 0 1 0 8.5 0 a4.25 4.25 0 1 0 -8.5 0zM624.75 1139 a4.25 4.25 0 1 0 8.5 0 a4.25 4.25 0 1 0 -8.5 0z" fill="black"></path>
            <path d="M46.75 901 a4.25 4.25 0 1 0 8.5 0 a4.25 4.25 0 1 0 -8.5 0zM12.75 799 a4.25 4.25 0 1 0 8.5 0 a4.25 4.25 0 1 0 -8.5 0z" fill="black"></path>
            <path d="M1338.75 391 a4.25 4.25 0 1 0 8.5 0 a4.25 4.25 0 1 0 -8.5 0zM1338.75 459 a4.25 4.25 0 1 0 8.5 0 a4.25 4.25 0 1 0 -8.5 0z" fill="black"></path>
            <path d="M930.75 51 a4.25 4.25 0 1 0 8.5 0 a4.25 4.25 0 1 0 -8.5 0zM930.75 119 a4.25 4.25 0 1 0 8.5 0 a4.25 4.25 0 1 0 -8.5 0z" fill="black"></path>
            <path d="M726.75 391 a4.25 4.25 0 1 0 8.5 0 a4.25 4.25 0 1 0 -8.5 0zM828.75 459 a4.25 4.25 0 1 0 8.5 0 a4.25 4.25 0 1 0 -8.5 0z" fill="black"></path>
            <path d="M1372.75 51 a4.25 4.25 0 1 0 8.5 0 a4.25 4.25 0 1 0 -8.5 0zM1440.75 51 a4.25 4.25 0 1 0 8.5 0 a4.25 4.25 0 1 0 -8.5 0z" fill="black"></path>
            <path d="M1066.75 85 a4.25 4.25 0 1 0 8.5 0 a4.25 4.25 0 1 0 -8.5 0zM998.75 85 a4.25 4.25 0 1 0 8.5 0 a4.25 4.25 0 1 0 -8.5 0z" fill="black"></path>
            <path d="M114.75 901 a4.25 4.25 0 1 0 8.5 0 a4.25 4.25 0 1 0 -8.5 0zM46.75 969 a4.25 4.25 0 1 0 8.5 0 a4.25 4.25 0 1 0 -8.5 0z" fill="black"></path>
            <path d="M250.75 1173 a4.25 4.25 0 1 0 8.5 0 a4.25 4.25 0 1 0 -8.5 0zM182.75 1207 a4.25 4.25 0 1 0 8.5 0 a4.25 4.25 0 1 0 -8.5 0z" fill="black"></path>
            <path d="M624.75 255 a4.25 4.25 0 1 0 8.5 0 a4.25 4.25 0 1 0 -8.5 0zM488.75 255 a4.25 4.25 0 1 0 8.5 0 a4.25 4.25 0 1 0 -8.5 0z" fill="black"></path>
            <path d="M182.75 663 a4.25 4.25 0 1 0 8.5 0 a4.25 4.25 0 1 0 -8.5 0zM182.75 595 a4.25 4.25 0 1 0 8.5 0 a4.25 4.25 0 1 0 -8.5 0z" fill="black"></path>
            <path d="M998.75 119 a4.25 4.25 0 1 0 8.5 0 a4.25 4.25 0 1 0 -8.5 0zM1100.75 153 a4.25 4.25 0 1 0 8.5 0 a4.25 4.25 0 1 0 -8.5 0z" fill="black"></path>
            <path d="M318.75 969 a4.25 4.25 0 1 0 8.5 0 a4.25 4.25 0 1 0 -8.5 0zM318.75 1037 a4.25 4.25 0 1 0 8.5 0 a4.25 4.25 0 1 0 -8.5 0z" fill="black"></path>
            <path d="M1202.75 561 a4.25 4.25 0 1 0 8.5 0 a4.25 4.25 0 1 0 -8.5 0zM1202.75 493 a4.25 4.25 0 1 0 8.5 0 a4.25 4.25 0 1 0 -8.5 0z" fill="black"></path>
        </mask>
    </defs>
</svg>